<svg xmlns="http://www.w3.org/2000/svg" viewBox="0 0 512 512">
  <defs/>
  <path d="M321 83c-12-33-29-61-47-82a260 260 0 00-37 0 281 281 0 00-58 116h153l-11-34zm0 0M171 365h169c6-30 10-61 11-94H160c1 33 5 64 11 94zm0 0M340 147H171c-6 30-10 61-11 94h191c-1-33-5-64-11-94zm0 0M190 429c13 33 29 61 47 82a260 260 0 0037 0 282 282 0 0058-116H179l11 34zm0 0M371 147c6 30 9 61 10 94h130c-2-33-10-65-24-94zm0 0M141 365c-7-30-10-61-11-94H0c2 33 10 65 24 94zm0 0M364 395c-12 42-28 79-48 110a254 254 0 00154-110zm0 0M148 117c11-42 27-79 47-110A254 254 0 0041 117zm0 0M148 395H41a258 258 0 00154 110c-20-31-36-68-47-110zm0 0M364 117h106A258 258 0 00316 7c20 31 36 68 48 110zm0 0M381 271c-1 33-4 64-10 94h116c14-29 22-61 24-94zm0 0M130 241c1-33 4-64 11-94H24c-14 29-22 61-24 94zm0 0"/>
</svg>
